<svg width="189" height="40" viewBox="0 0 189 40" fill="none" xmlns="http://www.w3.org/2000/svg">
<rect width="189" height="40" fill="#ECECEC"/>
<path d="M33.229 12.2711C33.042 12.0831 32.788 11.9771 32.5228 11.9763C32.2577 11.9756 32.0031 12.0802 31.815 12.2671C31.7157 12.3682 31.639 12.4892 31.59 12.6221C30.758 14.3581 29.842 15.3371 28.686 15.9151C27.389 16.5551 25.9 17.0001 23.5 17.0001C23.3027 17.0016 23.1101 17.0608 22.9461 17.1704C22.7821 17.2801 22.6538 17.4354 22.577 17.6171C22.5013 17.7999 22.4815 18.001 22.5201 18.195C22.5588 18.3891 22.6541 18.5673 22.794 18.7071L26.037 21.9501L21.5 28.0001L27.55 23.4631L30.792 26.7051C30.8853 26.7982 30.9961 26.872 31.118 26.9221C31.2413 26.9734 31.3687 26.9994 31.5 27.0001C31.697 27.0011 31.76 26.9731 31.882 26.9221C32.0646 26.8467 32.2207 26.7188 32.3307 26.5547C32.4406 26.3906 32.4996 26.1976 32.5 26.0001C32.5 23.6001 32.944 22.1111 33.583 20.8341C34.16 19.6781 35.139 18.7621 36.876 17.9301C37.0086 17.881 37.1292 17.8043 37.23 17.7051C37.4169 17.5171 37.5215 17.2624 37.5208 16.9973C37.52 16.7321 37.414 16.4781 37.226 16.2911L33.229 12.2711Z" fill="black"/>
<path d="M51.9392 27V12.6H55.1592L62.1792 25.12L61.4392 25.3V12.6H63.9592V27H60.7392L53.7192 14.48L54.4592 14.3V27H51.9392ZM71.1714 27.2C70.0914 27.2 69.1381 26.9733 68.3114 26.52C67.4981 26.0667 66.8647 25.44 66.4114 24.64C65.9581 23.8267 65.7314 22.9 65.7314 21.86C65.7314 20.82 65.9581 19.9067 66.4114 19.12C66.8647 18.3333 67.4981 17.72 68.3114 17.28C69.1381 16.8267 70.0914 16.6 71.1714 16.6C72.2647 16.6 73.2181 16.8267 74.0314 17.28C74.8447 17.72 75.4781 18.3333 75.9314 19.12C76.3847 19.9067 76.6114 20.82 76.6114 21.86C76.6114 22.9 76.3781 23.8267 75.9114 24.64C75.4581 25.44 74.8247 26.0667 74.0114 26.52C73.1981 26.9733 72.2514 27.2 71.1714 27.2ZM71.1714 25.18C71.7047 25.18 72.1847 25.0467 72.6114 24.78C73.0381 24.5 73.3714 24.1133 73.6114 23.62C73.8514 23.1133 73.9714 22.52 73.9714 21.84C73.9714 20.84 73.7047 20.0533 73.1714 19.48C72.6514 18.9067 71.9847 18.62 71.1714 18.62C70.3581 18.62 69.6847 18.9067 69.1514 19.48C68.6181 20.0533 68.3514 20.84 68.3514 21.84C68.3514 22.52 68.4714 23.1133 68.7114 23.62C68.9647 24.1133 69.2981 24.5 69.7114 24.78C70.1381 25.0467 70.6247 25.18 71.1714 25.18ZM82.8106 27.2C81.5573 27.2 80.6306 26.9067 80.0306 26.32C79.444 25.72 79.1506 24.8267 79.1506 23.64V14.48L81.6906 13.54V23.7C81.6906 24.1933 81.824 24.56 82.0906 24.8C82.3573 25.04 82.7773 25.16 83.3506 25.16C83.5773 25.16 83.7773 25.1467 83.9506 25.12C84.1373 25.08 84.3106 25.0333 84.4706 24.98V26.94C84.3106 27.02 84.084 27.08 83.7906 27.12C83.4973 27.1733 83.1706 27.2 82.8106 27.2ZM77.1906 18.78V16.8H84.4706V18.78H77.1906ZM86.297 27V16.8H88.817V27H86.297ZM86.177 15.12V12.34H88.917V15.12H86.177ZM95.8733 27.2C94.8466 27.2 93.9399 26.9733 93.1533 26.52C92.3799 26.0667 91.7666 25.44 91.3133 24.64C90.8733 23.8267 90.6533 22.9067 90.6533 21.88C90.6533 20.8533 90.8733 19.9467 91.3133 19.16C91.7666 18.36 92.3799 17.7333 93.1533 17.28C93.9399 16.8267 94.8466 16.6 95.8733 16.6C96.7133 16.6 97.4733 16.76 98.1533 17.08C98.8333 17.3867 99.3933 17.8267 99.8333 18.4C100.273 18.96 100.553 19.6133 100.673 20.36H98.2533C98.1066 19.8133 97.8266 19.3867 97.4133 19.08C96.9999 18.7733 96.4999 18.62 95.9133 18.62C95.3666 18.62 94.8933 18.7533 94.4933 19.02C94.1066 19.2867 93.8066 19.6667 93.5933 20.16C93.3799 20.6533 93.2733 21.2267 93.2733 21.88C93.2733 22.5467 93.3799 23.1267 93.5933 23.62C93.8066 24.1133 94.1133 24.5 94.5133 24.78C94.9133 25.0467 95.3799 25.18 95.9133 25.18C96.4999 25.18 96.9999 25.0267 97.4133 24.72C97.8266 24.4133 98.1066 23.9867 98.2533 23.44H100.673C100.553 24.1867 100.267 24.8467 99.8133 25.42C99.3733 25.98 98.8133 26.42 98.1333 26.74C97.4666 27.0467 96.7133 27.2 95.8733 27.2ZM107.01 27.2C105.93 27.2 104.983 26.9733 104.17 26.52C103.37 26.0667 102.743 25.44 102.29 24.64C101.85 23.84 101.63 22.92 101.63 21.88C101.63 20.84 101.85 19.9267 102.29 19.14C102.743 18.34 103.37 17.72 104.17 17.28C104.97 16.8267 105.903 16.6 106.97 16.6C107.983 16.6 108.863 16.8133 109.61 17.24C110.357 17.6533 110.937 18.24 111.35 19C111.763 19.76 111.97 20.6467 111.97 21.66C111.97 21.8467 111.963 22.02 111.95 22.18C111.937 22.34 111.917 22.5 111.89 22.66H103.19V20.9H109.95L109.43 21.38C109.43 20.42 109.21 19.7 108.77 19.22C108.33 18.74 107.717 18.5 106.93 18.5C106.077 18.5 105.397 18.7933 104.89 19.38C104.397 19.9667 104.15 20.8133 104.15 21.92C104.15 23.0133 104.397 23.8533 104.89 24.44C105.397 25.0133 106.11 25.3 107.03 25.3C107.563 25.3 108.03 25.2 108.43 25C108.83 24.8 109.123 24.4933 109.31 24.08H111.69C111.357 25.04 110.79 25.8 109.99 26.36C109.203 26.92 108.21 27.2 107.01 27.2ZM119.663 27V25.08H123.683C124.416 25.08 124.983 24.88 125.383 24.48C125.783 24.0667 125.983 23.5067 125.983 22.8C125.983 22.0667 125.769 21.4867 125.343 21.06C124.916 20.6333 124.323 20.42 123.563 20.42H119.663V18.5H123.383C124.103 18.5 124.656 18.3267 125.043 17.98C125.429 17.6333 125.623 17.1333 125.623 16.48C125.623 15.84 125.436 15.3533 125.063 15.02C124.703 14.6867 124.169 14.52 123.463 14.52H119.663V12.6H123.943C125.236 12.6 126.269 12.9267 127.043 13.58C127.829 14.22 128.223 15.0933 128.223 16.2C128.223 16.8933 128.056 17.5 127.723 18.02C127.403 18.5267 126.969 18.92 126.423 19.2C125.876 19.48 125.256 19.62 124.563 19.62L124.663 19.2C125.396 19.2 126.063 19.3667 126.663 19.7C127.263 20.02 127.736 20.4733 128.083 21.06C128.443 21.6467 128.623 22.3267 128.623 23.1C128.623 23.8867 128.436 24.5733 128.063 25.16C127.703 25.7467 127.189 26.2 126.523 26.52C125.869 26.84 125.096 27 124.203 27H119.663ZM117.623 27V12.6H120.223V27H117.623ZM135.253 27.2C134.173 27.2 133.22 26.9733 132.393 26.52C131.58 26.0667 130.947 25.44 130.493 24.64C130.04 23.8267 129.813 22.9 129.813 21.86C129.813 20.82 130.04 19.9067 130.493 19.12C130.947 18.3333 131.58 17.72 132.393 17.28C133.22 16.8267 134.173 16.6 135.253 16.6C136.347 16.6 137.3 16.8267 138.113 17.28C138.927 17.72 139.56 18.3333 140.013 19.12C140.467 19.9067 140.693 20.82 140.693 21.86C140.693 22.9 140.46 23.8267 139.993 24.64C139.54 25.44 138.907 26.0667 138.093 26.52C137.28 26.9733 136.333 27.2 135.253 27.2ZM135.253 25.18C135.787 25.18 136.267 25.0467 136.693 24.78C137.12 24.5 137.453 24.1133 137.693 23.62C137.933 23.1133 138.053 22.52 138.053 21.84C138.053 20.84 137.787 20.0533 137.253 19.48C136.733 18.9067 136.067 18.62 135.253 18.62C134.44 18.62 133.767 18.9067 133.233 19.48C132.7 20.0533 132.433 20.84 132.433 21.84C132.433 22.52 132.553 23.1133 132.793 23.62C133.047 24.1133 133.38 24.5 133.793 24.78C134.22 25.0467 134.707 25.18 135.253 25.18ZM148.868 27C148.801 26.7333 148.748 26.44 148.708 26.12C148.681 25.8 148.668 25.4133 148.668 24.96H148.588V20.12C148.588 19.5867 148.435 19.1867 148.128 18.92C147.835 18.64 147.381 18.5 146.768 18.5C146.168 18.5 145.688 18.6133 145.328 18.84C144.981 19.0533 144.768 19.3667 144.688 19.78H142.268C142.375 18.8333 142.828 18.0667 143.628 17.48C144.428 16.8933 145.501 16.6 146.848 16.6C148.248 16.6 149.308 16.92 150.028 17.56C150.748 18.1867 151.108 19.1133 151.108 20.34V24.96C151.108 25.28 151.128 25.6067 151.168 25.94C151.221 26.2733 151.295 26.6267 151.388 27H148.868ZM145.328 27.2C144.301 27.2 143.481 26.9467 142.868 26.44C142.268 25.92 141.968 25.2267 141.968 24.36C141.968 23.4267 142.308 22.6867 142.988 22.14C143.668 21.5933 144.628 21.2267 145.868 21.04L149.048 20.56V22.16L146.288 22.58C145.688 22.6733 145.235 22.84 144.928 23.08C144.635 23.32 144.488 23.6533 144.488 24.08C144.488 24.4667 144.628 24.7667 144.908 24.98C145.188 25.18 145.575 25.28 146.068 25.28C146.788 25.28 147.388 25.1 147.868 24.74C148.348 24.38 148.588 23.94 148.588 23.42L148.868 24.96C148.601 25.6933 148.161 26.2533 147.548 26.64C146.948 27.0133 146.208 27.2 145.328 27.2ZM153.66 27V16.8H156.12V19.26H156.18V27H153.66ZM156.18 21.68L155.92 19.26C156.16 18.3933 156.567 17.7333 157.14 17.28C157.714 16.8267 158.4 16.6 159.2 16.6C159.48 16.6 159.68 16.6267 159.8 16.68V19.06C159.734 19.0333 159.64 19.02 159.52 19.02C159.4 19.0067 159.254 19 159.08 19C158.107 19 157.38 19.2133 156.9 19.64C156.42 20.0667 156.18 20.7467 156.18 21.68ZM168.499 27V24.7L168.699 24.74C168.526 25.4867 168.106 26.0867 167.439 26.54C166.772 26.98 165.979 27.2 165.059 27.2C164.126 27.2 163.312 26.9867 162.619 26.56C161.939 26.12 161.412 25.5067 161.039 24.72C160.666 23.9333 160.479 23.0067 160.479 21.94C160.479 20.86 160.672 19.92 161.059 19.12C161.446 18.32 161.986 17.7 162.679 17.26C163.386 16.82 164.206 16.6 165.139 16.6C166.099 16.6 166.892 16.8333 167.519 17.3C168.146 17.7533 168.532 18.3867 168.679 19.2L168.419 19.22V12.6H170.959V27H168.499ZM165.799 25.14C166.612 25.14 167.259 24.86 167.739 24.3C168.232 23.7267 168.479 22.9267 168.479 21.9C168.479 20.8733 168.232 20.08 167.739 19.52C167.246 18.96 166.592 18.68 165.779 18.68C164.979 18.68 164.332 18.9667 163.839 19.54C163.346 20.1 163.099 20.8933 163.099 21.92C163.099 22.9467 163.346 23.74 163.839 24.3C164.332 24.86 164.986 25.14 165.799 25.14Z" fill="black"/>
</svg>
